<svg width="100" height="28" viewBox="0 0 100 28" fill="none" xmlns="http://www.w3.org/2000/svg">
<path fill-rule="evenodd" clip-rule="evenodd" d="M11.7647 21.2722C15.4466 21.2722 18.4314 18.0163 18.4314 14C18.4314 9.98362 15.4466 6.72774 11.7647 6.72774C8.08281 6.72774 5.09804 9.98362 5.09804 14C5.09804 18.0163 8.08281 21.2722 11.7647 21.2722ZM11.7647 26.8333C18.2622 26.8333 23.5294 21.0876 23.5294 14C23.5294 6.91231 18.2622 1.16663 11.7647 1.16663C5.26724 1.16663 0 6.91231 0 14C0 21.0876 5.26724 26.8333 11.7647 26.8333Z" fill="#6938EF"/>
<path d="M11.8993 14.281C13.1244 12.9445 15.1108 12.9445 16.336 14.281L22.4365 20.9356C23.6617 22.2721 23.6617 24.4389 22.4365 25.7754V25.7754C21.2114 27.1118 19.225 27.1118 17.9998 25.7754L11.8993 19.1207C10.6741 17.7843 10.6741 15.6174 11.8993 14.281V14.281Z" fill="#F670C7"/>
<path d="M13.6122 20.9893L17.4867 25.2158C19.3451 24.0852 20.8934 22.4209 21.9574 20.413L18.1146 16.2212C17.4396 18.5192 15.7454 20.3196 13.6122 20.9893Z" fill="#6519BA"/>
<path d="M42.5241 21.0583C42.1847 21.5157 41.7704 21.8641 41.2813 22.1037C40.8021 22.3432 40.2731 22.463 39.6941 22.463C38.9155 22.463 38.2118 22.2779 37.5829 21.9077C36.954 21.5483 36.2353 20.9059 35.4267 19.9803C34.4784 19.8497 33.63 19.5176 32.8813 18.984C32.1426 18.4504 31.5636 17.7644 31.1444 16.926C30.7351 16.0767 30.5305 15.1402 30.5305 14.1167C30.5305 12.9951 30.7751 11.9879 31.2642 11.095C31.7633 10.1912 32.4471 9.48345 33.3155 8.97167C34.1939 8.45989 35.1772 8.204 36.2652 8.204C37.3533 8.204 38.3316 8.45989 39.2 8.97167C40.0685 9.48345 40.7522 10.1912 41.2513 11.095C41.7505 11.9879 42 12.9951 42 14.1167C42 15.4451 41.6556 16.6102 40.9669 17.612C40.2881 18.6138 39.3847 19.3107 38.2567 19.7027C38.5062 19.9858 38.7458 20.1872 38.9754 20.307C39.215 20.4377 39.4695 20.503 39.739 20.503C40.3879 20.503 40.9569 20.2199 41.446 19.6537L42.5241 21.0583ZM32.9861 14.1167C32.9861 14.8244 33.1259 15.456 33.4054 16.0113C33.6948 16.5667 34.0891 17.0022 34.5882 17.318C35.0874 17.6229 35.6464 17.7753 36.2652 17.7753C36.8841 17.7753 37.4431 17.6229 37.9423 17.318C38.4414 17.0022 38.8307 16.5667 39.1102 16.0113C39.3997 15.456 39.5444 14.8244 39.5444 14.1167C39.5444 13.4089 39.3997 12.7773 39.1102 12.222C38.8307 11.6667 38.4414 11.2366 37.9423 10.9317C37.4431 10.6159 36.8841 10.458 36.2652 10.458C35.6464 10.458 35.0874 10.6159 34.5882 10.9317C34.0891 11.2366 33.6948 11.6667 33.4054 12.222C33.1259 12.7773 32.9861 13.4089 32.9861 14.1167Z" fill="#181D27"/>
<path d="M51.7738 11.046V19.8333H49.5578V18.788C49.2483 19.1691 48.879 19.4631 48.4497 19.67C48.0205 19.866 47.5563 19.964 47.0572 19.964C45.9991 19.964 45.1606 19.6319 44.5417 18.9677C43.9228 18.3034 43.6134 17.318 43.6134 16.0113V11.046H45.9492V15.6357C45.9492 17.0512 46.4932 17.759 47.5813 17.759C48.1403 17.759 48.5895 17.563 48.9289 17.171C49.2683 16.7681 49.438 16.1747 49.438 15.3907V11.046H51.7738Z" fill="#181D27"/>
<path d="M57.7709 19.964C56.9225 19.964 56.1588 19.7734 55.48 19.3923C54.8112 19.0003 54.2872 18.4613 53.9078 17.7753C53.5285 17.0893 53.3389 16.3108 53.3389 15.4397C53.3389 14.5686 53.5285 13.79 53.9078 13.104C54.2872 12.418 54.8112 11.8844 55.48 11.5033C56.1588 11.1113 56.9225 10.9153 57.7709 10.9153C58.6194 10.9153 59.3781 11.1113 60.0469 11.5033C60.7157 11.8844 61.2398 12.418 61.6191 13.104C61.9984 13.79 62.1881 14.5686 62.1881 15.4397C62.1881 16.3108 61.9984 17.0893 61.6191 17.7753C61.2398 18.4613 60.7157 19.0003 60.0469 19.3923C59.3781 19.7734 58.6194 19.964 57.7709 19.964ZM57.7709 17.8733C58.3699 17.8733 58.859 17.6556 59.2383 17.22C59.6276 16.7736 59.8223 16.1801 59.8223 15.4397C59.8223 14.6992 59.6276 14.1112 59.2383 13.6757C58.859 13.2292 58.3699 13.006 57.7709 13.006C57.172 13.006 56.6779 13.2292 56.2886 13.6757C55.8993 14.1112 55.7046 14.6992 55.7046 15.4397C55.7046 16.1801 55.8993 16.7736 56.2886 17.22C56.6779 17.6556 57.172 17.8733 57.7709 17.8733Z" fill="#181D27"/>
<path d="M68.9451 19.4087C68.7155 19.5938 68.431 19.7353 68.0916 19.8333C67.7622 19.9204 67.4128 19.964 67.0435 19.964C66.0852 19.964 65.3415 19.6972 64.8125 19.1637C64.2934 18.6301 64.0339 17.8461 64.0339 16.8117V13.202H62.7911V11.242H64.0339V9.10234H66.3697V11.242H68.3761V13.202H66.3697V16.779C66.3697 17.1492 66.4545 17.4378 66.6242 17.6447C66.8039 17.8407 67.0535 17.9387 67.3729 17.9387C67.7422 17.9387 68.0567 17.8298 68.3162 17.612L68.9451 19.4087Z" fill="#181D27"/>
<path d="M70.2563 11.046H72.5921V19.8333H70.2563V11.046ZM71.4242 9.821C70.995 9.821 70.6456 9.68489 70.3761 9.41267C70.1066 9.14045 69.9718 8.80289 69.9718 8.4C69.9718 7.99712 70.1066 7.65956 70.3761 7.38734C70.6456 7.11512 70.995 6.979 71.4242 6.979C71.8535 6.979 72.2028 7.10967 72.4724 7.371C72.7419 7.63234 72.8766 7.959 72.8766 8.351C72.8766 8.77567 72.7419 9.12956 72.4724 9.41267C72.2028 9.68489 71.8535 9.821 71.4242 9.821Z" fill="#181D27"/>
<path d="M82.6509 15.4723C82.6509 15.505 82.6359 15.7337 82.606 16.1583H76.5119C76.6217 16.7028 76.8812 17.1329 77.2905 17.4487C77.6997 17.7644 78.2088 17.9223 78.8177 17.9223C79.237 17.9223 79.6063 17.857 79.9258 17.7263C80.2552 17.5848 80.5596 17.367 80.8391 17.073L82.0819 18.543C81.3233 19.4903 80.2152 19.964 78.7578 19.964C77.8495 19.964 77.0459 19.7734 76.3472 19.3923C75.6484 19.0003 75.1094 18.4613 74.73 17.7753C74.3507 17.0893 74.1611 16.3108 74.1611 15.4397C74.1611 14.5794 74.3457 13.8063 74.7151 13.1203C75.0944 12.4234 75.6085 11.8844 76.2573 11.5033C76.9161 11.1113 77.6498 10.9153 78.4584 10.9153C79.247 10.9153 79.9607 11.1004 80.5996 11.4707C81.2384 11.8409 81.7375 12.3744 82.0969 13.0713C82.4662 13.7573 82.6509 14.5577 82.6509 15.4723ZM78.4734 12.8427C77.9443 12.8427 77.5001 13.006 77.1407 13.3327C76.7814 13.6593 76.5618 14.1058 76.4819 14.672H80.4498C80.37 14.1167 80.1504 13.6757 79.791 13.349C79.4316 13.0114 78.9924 12.8427 78.4734 12.8427Z" fill="#181D27"/>
<path d="M89.1023 10.9153C90.1005 10.9153 90.904 11.242 91.513 11.8953C92.1319 12.5487 92.4413 13.5178 92.4413 14.8027V19.8333H90.1055V15.1947C90.1055 14.4978 89.9657 13.9806 89.6862 13.643C89.4067 13.2946 89.0024 13.1203 88.4734 13.1203C87.8844 13.1203 87.4153 13.3218 87.0659 13.7247C86.7165 14.1167 86.5418 14.7047 86.5418 15.4887V19.8333H84.206V11.046H86.437V12.075C86.7465 11.7048 87.1308 11.4217 87.59 11.2257C88.0491 11.0188 88.5532 10.9153 89.1023 10.9153Z" fill="#181D27"/>
<path d="M99.7543 19.4087C99.5247 19.5938 99.2403 19.7353 98.9009 19.8333C98.5715 19.9204 98.2221 19.964 97.8527 19.964C96.8944 19.964 96.1508 19.6972 95.6217 19.1637C95.1026 18.6301 94.8431 17.8461 94.8431 16.8117V13.202H93.6003V11.242H94.8431V9.10234H97.1789V11.242H99.1854V13.202H97.1789V16.779C97.1789 17.1492 97.2638 17.4378 97.4335 17.6447C97.6132 17.8407 97.8627 17.9387 98.1821 17.9387C98.5515 17.9387 98.8659 17.8298 99.1255 17.612L99.7543 19.4087Z" fill="#181D27"/>
</svg>
