<svg width="14" height="16" viewBox="0 0 14 16" fill="none" xmlns="http://www.w3.org/2000/svg">
<path d="M5.93298 5.93832L0.535156 9.9999C0.198153 10.2532 0 10.6546 0 11.0827L0 14.654C0 15.7545 1.22218 16.3885 2.08855 15.7368L6.70968 12.2588L11.3308 15.7368C12.1972 16.3885 13.4194 15.7545 13.4194 14.654L13.4194 11.0827C13.4194 10.6546 13.2212 10.2532 12.8842 9.9999L7.48637 5.93832C7.02354 5.59022 6.39437 5.59022 5.93298 5.93832Z" fill="url(#paint0_linear_22_16)"/>
<path d="M6.70985 0.5C9.28416 0.5 11.3709 2.58685 11.371 5.16113C11.371 7.73549 9.28421 9.82227 6.70985 9.82227C4.13557 9.82218 2.04872 7.73544 2.04872 5.16113C2.04881 2.5869 4.13562 0.500085 6.70985 0.5Z" fill="url(#paint1_linear_22_16)"/>
<path d="M6.70985 0.5C9.28416 0.5 11.3709 2.58685 11.371 5.16113C11.371 7.73549 9.28421 9.82227 6.70985 9.82227C4.13557 9.82218 2.04872 7.73544 2.04872 5.16113C2.04881 2.5869 4.13562 0.500085 6.70985 0.5Z" fill="url(#paint2_linear_22_16)" fill-opacity="0.9"/>
<path d="M6.70985 0.5C9.28416 0.5 11.3709 2.58685 11.371 5.16113C11.371 7.73549 9.28421 9.82227 6.70985 9.82227C4.13557 9.82218 2.04872 7.73544 2.04872 5.16113C2.04881 2.5869 4.13562 0.500085 6.70985 0.5Z" stroke="url(#paint3_linear_22_16)"/>
<defs>
<linearGradient id="paint0_linear_22_16" x1="5.295" y1="6.02635" x2="-1.11022" y2="15.227" gradientUnits="userSpaceOnUse">
<stop stop-color="#0B71FF"/>
<stop offset="1" stop-color="#EB74FF"/>
</linearGradient>
<linearGradient id="paint1_linear_22_16" x1="2.13149" y1="9.73981" x2="11.2885" y2="0.58277" gradientUnits="userSpaceOnUse">
<stop stop-color="white" stop-opacity="0"/>
<stop offset="1" stop-color="white" stop-opacity="0.08"/>
</linearGradient>
<linearGradient id="paint2_linear_22_16" x1="9" y1="8.49334e-09" x2="4.5" y2="10" gradientUnits="userSpaceOnUse">
<stop offset="0.117833" stop-color="#EBEBEB"/>
<stop offset="1" stop-color="white"/>
</linearGradient>
<linearGradient id="paint3_linear_22_16" x1="2.27738" y1="0.811852" x2="10.9061" y2="10.0379" gradientUnits="userSpaceOnUse">
<stop stop-color="white"/>
<stop offset="1" stop-color="white" stop-opacity="0"/>
</linearGradient>
</defs>
</svg>
